<svg xmlns="http://www.w3.org/2000/svg" version="1.1" xmlns:xlink="http://www.w3.org/1999/xlink" width="1000" height="1000"><g clip-path="url(#SvgjsClipPath1117)"><rect width="1000" height="1000" fill="#ffffff"></rect><g transform="matrix(4.166666666666667,0,0,4.166666666666667,187.5,150)"><svg xmlns="http://www.w3.org/2000/svg" version="1.1" xmlns:xlink="http://www.w3.org/1999/xlink" width="150" height="168"><svg width="150" height="168" viewBox="0 0 150 168" fill="none" xmlns="http://www.w3.org/2000/svg">
<path d="M126.91 50.6914C126.91 34.834 106.705 20.0001 74.4785 20C43.7866 20 22.3018 35.8575 22.3018 57.5977L22.3145 58.7646C23.4116 107.655 93.661 87.0203 93.6611 120.771L93.6543 121.307C93.4039 132.447 85.3126 137.652 74.9902 137.652C49.4136 137.652 57.8532 103.891 35.6016 103.891C26.6499 103.891 20.0001 108.239 20 117.958C20 133.816 41.9964 147.627 74.9902 147.627C109.262 147.627 129.723 131.77 129.724 111.053C129.724 62.2014 59.6436 82.6621 59.6436 47.6221C59.6437 38.4146 66.2939 30.4863 76.5244 30.4863C98.776 30.4864 91.1035 63.9912 112.588 63.9912C120.516 63.991 126.91 58.1085 126.91 50.6914ZM146.91 50.6914C146.91 60.5769 142.75 68.862 136.418 74.6963C144.8 83.774 149.724 95.8531 149.724 111.053C149.723 128.763 140.708 143.711 126.648 153.515C112.996 163.034 94.9663 167.627 74.9902 167.627C55.9465 167.627 38.608 163.677 25.2871 156.153C12.3944 148.872 0 135.996 0 117.958L0.0107422 117.04C0.228882 107.565 3.84059 98.3704 11.6924 91.8721C12.0401 91.5843 12.3933 91.309 12.7471 91.04C6.40533 82.6801 2.60878 72.1108 2.31934 59.2129L2.31641 59.0977L2.31543 58.9824L2.30273 57.8154L2.30176 57.7061V57.5977C2.30176 39.4383 11.5002 24.3527 25.1338 14.459C38.4673 4.78305 55.8848 0 74.4785 0C93.4642 5.14981e-05 110.463 4.34381 123.4 12.4521C136.118 20.4229 146.91 33.6302 146.91 50.6914Z" fill="#FF4100"></path>
</svg></svg></g></g><defs><clipPath id="SvgjsClipPath1117"><rect width="1000" height="1000" x="0" y="0" rx="350" ry="350"></rect></clipPath></defs></svg>